<?xml version="1.0" encoding="UTF-8"?>
<!DOCTYPE svg PUBLIC "-//W3C//DTD SVG 1.1//EN" "http://www.w3.org/Graphics/SVG/1.1/DTD/svg11.dtd">
<svg version="1.1" xmlns="http://www.w3.org/2000/svg" xmlns:xlink="http://www.w3.org/1999/xlink" x="0" y="0" width="466" height="190" viewBox="0, 0, 466, 190">
  <g id="Layer_1">
    <path d="M0,-0 L466,-0 L466,190 L0,190 z" fill="#151515"/>
    <g>
      <g>
        <path d="M173.051,107.208 C172.675,112.703 170.537,117.072 166.627,120.323 C162.714,123.572 157.622,125.195 151.345,125.195 C144.101,125.195 138.47,122.943 134.462,118.481 C130.431,114.005 128.433,107.729 128.433,99.651 C128.433,91.406 130.486,85.098 134.569,80.709 C138.663,76.319 144.551,74.135 152.237,74.135 C158.481,74.135 163.403,75.636 167.023,78.652 C170.634,81.669 172.635,85.929 172.977,91.441 L163.058,91.441 C162.639,88.69 161.499,86.602 159.674,85.175 C157.836,83.737 155.354,83.012 152.235,83.012 C147.809,83.012 144.446,84.43 142.142,87.264 C139.845,90.087 138.685,94.222 138.685,99.653 C138.685,104.917 139.823,108.988 142.112,111.866 C144.412,114.746 147.667,116.169 151.901,116.169 C154.955,116.169 157.459,115.393 159.403,113.869 C161.359,112.312 162.618,110.103 163.189,107.208 L173.051,107.208 L173.051,107.208 z M180.124,138.193 L180.124,130.446 C180.424,130.49 180.759,130.543 181.078,130.567 C181.413,130.586 181.842,130.6 182.37,130.6 C184.281,130.6 185.699,130.152 186.656,129.243 C187.614,128.359 188.086,127.027 188.086,125.259 C188.086,125.131 188.065,124.961 188.017,124.77 C187.967,124.555 187.924,124.407 187.882,124.256 L174.879,88.076 L185.485,88.076 L193.094,113.881 L200.499,88.076 L210.654,88.076 L195.824,130.267 C194.715,133.41 193.331,135.585 191.663,136.713 C190.009,137.877 187.515,138.439 184.195,138.439 C183.593,138.439 182.958,138.42 182.272,138.376 C181.596,138.329 180.864,138.266 180.124,138.193 L180.124,138.193 z M232.407,124.094 C231.525,124.116 230.472,124.158 229.235,124.211 C228.01,124.289 227.237,124.31 226.904,124.31 C223.197,124.31 220.67,123.615 219.317,122.254 C217.951,120.866 217.275,118.171 217.275,114.134 L217.275,94.795 L212.494,94.795 L212.494,88.071 L217.275,88.071 L217.275,78.311 L226.842,78.311 L226.842,88.071 L232.409,88.071 L232.409,94.795 L226.842,94.795 L226.842,114.589 C226.842,115.551 227.057,116.157 227.475,116.457 C227.895,116.744 228.754,116.903 230.052,116.903 L232.406,116.903 L232.406,124.094 L232.407,124.094 L232.407,124.094 z M245.767,105.896 C245.767,109.455 246.485,112.203 247.97,114.123 C249.453,116.063 251.549,117.019 254.257,117.019 C256.929,117.019 259.008,116.061 260.489,114.123 C261.973,112.205 262.69,109.455 262.69,105.896 C262.69,102.379 261.985,99.65 260.51,97.733 C259.062,95.816 256.975,94.856 254.257,94.856 C251.549,94.856 249.453,95.815 247.97,97.733 C246.483,99.65 245.767,102.379 245.767,105.896 L245.767,105.896 z M235.964,105.896 C235.964,99.961 237.597,95.293 240.855,91.895 C244.112,88.484 248.56,86.79 254.266,86.79 C259.942,86.79 264.388,88.484 267.656,91.895 C270.924,95.293 272.557,99.961 272.557,105.896 C272.557,111.874 270.923,116.551 267.656,119.949 C264.389,123.346 259.942,125.042 254.266,125.042 C248.558,125.042 244.112,123.346 240.855,119.949 C237.597,116.551 235.964,111.875 235.964,105.896 z" fill="#FFFFFF"/>
        <path d="M274.931,111.782 L280.657,111.782 C280.894,114.155 281.752,115.981 283.281,117.216 C284.782,118.428 286.932,119.049 289.725,119.049 C292.285,119.049 294.315,118.558 295.813,117.545 C297.282,116.556 298.025,115.193 298.025,113.465 C298.025,112.154 297.648,111.163 296.908,110.47 C296.178,109.79 294.725,109.181 292.576,108.681 L285.903,106.977 C282.14,106.083 279.542,104.888 278.058,103.394 C276.598,101.927 275.855,99.817 275.855,97.065 C275.855,93.966 277.049,91.494 279.411,89.662 C281.797,87.828 285.054,86.913 289.2,86.913 C293.424,86.913 296.778,87.894 299.282,89.844 C301.784,91.792 303.034,94.414 303.034,97.709 L303.034,97.834 L297.219,97.834 C297.091,95.97 296.318,94.521 294.919,93.508 C293.501,92.487 291.609,91.975 289.19,91.975 C286.771,91.975 284.957,92.39 283.699,93.223 C282.449,94.064 281.816,95.279 281.816,96.889 C281.816,98.03 282.214,98.924 282.999,99.55 C283.783,100.211 285.243,100.765 287.404,101.245 L293.163,102.612 C297.278,103.57 300.115,104.808 301.677,106.296 C303.212,107.81 303.984,109.952 303.984,112.744 C303.984,116.411 302.686,119.233 300.096,121.268 C297.496,123.303 293.862,124.328 289.2,124.328 C284.633,124.328 281.116,123.241 278.691,121.098 C276.251,118.941 274.994,115.829 274.931,111.782 L274.931,111.782 z M332.62,99.719 C332.448,97.3 331.555,95.445 329.987,94.124 C328.395,92.824 326.246,92.174 323.484,92.174 C320.249,92.174 317.754,93.337 316.003,95.638 C314.252,97.925 313.371,101.22 313.371,105.515 C313.371,109.796 314.22,113.111 315.908,115.42 C317.594,117.757 320.004,118.928 323.085,118.928 C325.882,118.928 328.105,118.203 329.771,116.788 C331.447,115.348 332.49,113.27 332.885,110.566 L338.582,110.566 C338.295,114.879 336.745,118.246 333.974,120.677 C331.223,123.107 327.504,124.321 322.817,124.321 C317.962,124.321 314.147,122.668 311.362,119.356 C308.578,116.041 307.192,111.492 307.192,105.726 C307.192,99.824 308.632,95.211 311.533,91.864 C314.432,88.52 318.422,86.845 323.483,86.845 C327.966,86.845 331.522,87.995 334.231,90.309 C336.906,92.62 338.347,95.752 338.517,99.717 L332.618,99.717 L332.62,99.719 L332.62,99.719 z M364.604,118.526 C362.733,120.442 360.744,121.903 358.66,122.861 C356.563,123.82 354.361,124.322 352.008,124.322 C348.39,124.322 345.55,123.361 343.518,121.497 C341.477,119.61 340.468,117.022 340.468,113.719 C340.468,110.526 341.455,108.019 343.465,106.185 C345.475,104.364 348.516,103.193 352.609,102.671 C353.64,102.539 355.06,102.402 356.822,102.211 C359.852,101.902 361.723,101.592 362.389,101.304 C363.088,101.06 363.54,100.708 363.778,100.281 C363.98,99.856 364.086,98.932 364.086,97.489 C364.086,95.7 363.43,94.357 362.112,93.45 C360.777,92.556 358.78,92.109 356.092,92.109 C353.341,92.109 351.258,92.652 349.836,93.75 C348.441,94.849 347.729,96.479 347.729,98.619 L342.098,98.619 L342.098,98.351 C342.098,94.806 343.355,91.991 345.882,89.924 C348.406,87.867 351.865,86.845 356.306,86.845 C361.045,86.845 364.536,87.73 366.807,89.485 C369.039,91.256 370.17,94.016 370.17,97.766 L370.17,115.389 C370.17,116.903 370.33,117.871 370.662,118.307 C370.997,118.745 371.585,118.983 372.457,118.983 C372.641,118.983 372.845,118.971 373.104,118.94 C373.375,118.908 373.661,118.856 374.016,118.767 L374.016,123.349 C373.306,123.553 372.652,123.692 372.127,123.765 C371.566,123.865 371.05,123.896 370.566,123.896 C368.569,123.896 367.098,123.47 366.085,122.615 C365.097,121.732 364.603,120.442 364.603,118.717 L364.604,118.526 L364.604,118.526 L364.604,118.526 z M364.023,105.292 C362.421,106.143 359.703,106.826 355.835,107.306 C354.445,107.476 353.437,107.627 352.738,107.731 C350.578,108.081 349.007,108.71 348.064,109.626 C347.119,110.567 346.645,111.898 346.645,113.653 C346.645,115.401 347.194,116.744 348.302,117.706 C349.393,118.642 350.986,119.111 353.039,119.111 C356.263,119.111 358.885,118.311 360.947,116.701 C363,115.116 364.021,113.07 364.021,110.566 L364.023,105.292 L364.023,105.292 z M383.216,105.845 C383.216,110.246 384.096,113.539 385.874,115.745 C387.624,117.94 390.257,119.049 393.774,119.049 C397.147,119.049 399.736,117.833 401.551,115.401 C403.391,112.982 404.304,109.543 404.304,105.111 C404.304,101.094 403.367,97.929 401.467,95.641 C399.563,93.339 396.983,92.176 393.706,92.176 C390.34,92.176 387.752,93.36 385.947,95.725 C384.117,98.1 383.216,101.477 383.216,105.845 L383.216,105.845 z M377.587,137.311 L377.587,87.987 L383.433,87.987 L383.433,92.964 C384.891,90.865 386.56,89.308 388.421,88.329 C390.267,87.338 392.448,86.848 395.018,86.848 C399.747,86.848 403.518,88.53 406.346,91.909 C409.154,95.286 410.58,99.813 410.58,105.492 C410.58,111.236 409.138,115.807 406.303,119.207 C403.443,122.628 399.662,124.322 394.928,124.322 C392.424,124.322 390.244,123.876 388.365,122.968 C386.461,122.082 384.817,120.731 383.432,118.921 L383.432,137.311 L377.587,137.311 L377.587,137.311 z M420.303,102.404 L439.821,102.404 C439.799,99.112 438.962,96.576 437.296,94.797 C435.639,93.006 433.277,92.111 430.234,92.111 C427.29,92.111 424.955,92.985 423.268,94.731 C421.584,96.501 420.598,99.048 420.303,102.404 L420.303,102.404 z M439.704,111.847 L445.604,111.847 C444.947,115.722 443.248,118.78 440.491,121.03 C437.725,123.259 434.245,124.386 430.04,124.386 C425.109,124.386 421.195,122.744 418.358,119.453 C415.502,116.16 414.06,111.661 414.06,105.996 C414.06,99.973 415.49,95.285 418.303,91.908 C421.142,88.53 425.062,86.847 430.04,86.847 C435.146,86.847 439.088,88.402 441.896,91.514 C444.698,94.625 446.096,99.025 446.096,104.715 C446.096,105.418 446.096,105.972 446.086,106.301 C446.075,106.653 446.045,107.004 446.002,107.338 L420.337,107.338 C420.402,111.045 421.35,113.924 423.134,115.956 C424.915,117.968 427.409,118.994 430.604,118.994 C433.043,118.994 435.053,118.362 436.62,117.116 C438.208,115.881 439.243,114.124 439.704,111.847 z" fill="#EA9123"/>
      </g>
      <path d="M74.527,55.43 C74.285,57.813 73.592,60.118 72.479,62.236 L90.537,80.675 C93.12,79.43 95.931,78.738 98.811,78.638 L106.331,53.86 C104.41,52.436 102.775,50.657 101.519,48.622 L74.527,55.43 z M71.517,43.172 L98.896,36.267 C100.125,27.062 108.015,20 117.503,20 C127.87,20 136.277,28.409 136.277,38.774 C136.277,48.882 128.282,57.128 118.273,57.532 L110.855,81.976 C116.704,85.777 120.31,92.301 120.31,99.395 C120.31,105.35 117.774,110.944 113.404,114.86 L121.526,131.074 C122.397,130.95 123.277,130.889 124.158,130.889 C134.524,130.889 142.932,139.297 142.932,149.663 C142.932,160.028 134.524,168.437 124.158,168.437 C113.791,168.437 105.383,160.028 105.383,149.663 C105.383,144.862 107.206,140.303 110.444,136.842 L102.015,120.018 C101.194,120.116 100.367,120.165 99.54,120.165 C95.335,120.165 91.276,118.905 87.841,116.556 L78.297,124.962 C78.362,125.455 78.394,125.953 78.394,126.453 C78.394,132.778 73.264,137.908 66.94,137.908 C60.615,137.908 55.485,132.778 55.485,126.453 C55.485,120.128 60.615,114.997 66.94,114.997 C68.031,114.997 69.112,115.152 70.152,115.455 L80.095,106.701 C79.589,105.355 79.225,103.959 79.009,102.537 L55.308,99.344 C52.066,105.371 45.743,109.223 38.774,109.223 C28.407,109.223 20,100.814 20,90.449 C20,80.084 28.407,71.676 38.774,71.676 C47.894,71.676 55.595,78.217 57.227,86.987 L80.924,90.18 C81.081,89.862 81.248,89.548 81.422,89.238 L63.315,70.747 C60.965,71.767 58.431,72.293 55.85,72.293 C45.484,72.293 37.076,63.885 37.076,53.519 C37.076,43.154 45.484,34.746 55.85,34.746 C62.212,34.745 68.07,37.954 71.517,43.172 z" fill="#EA9123"/>
    </g>
  </g>
</svg>
