<?xml version="1.0" encoding="UTF-8"?>
<!DOCTYPE svg PUBLIC "-//W3C//DTD SVG 1.1//EN" "http://www.w3.org/Graphics/SVG/1.1/DTD/svg11.dtd">
<svg version="1.1" xmlns="http://www.w3.org/2000/svg" xmlns:xlink="http://www.w3.org/1999/xlink" x="0" y="0" width="32" height="32" viewBox="0, 0, 128, 128">
  <defs>
    <linearGradient id="Gradient_1" gradientUnits="userSpaceOnUse" x1="47.232" y1="39.971" x2="150.051" y2="128.433" gradientTransform="matrix(0.563, 0, 0, 0.568, -14.991, -11.702)">
      <stop offset="0" stop-color="#5A9FD4"/>
      <stop offset="1" stop-color="#306998"/>
    </linearGradient>
    <linearGradient id="Gradient_2" gradientUnits="userSpaceOnUse" x1="164.478" y1="201.956" x2="127.761" y2="150.008" gradientTransform="matrix(0.563, 0, 0, 0.568, -14.991, -11.702)">
      <stop offset="0" stop-color="#FFD43B"/>
      <stop offset="1" stop-color="#FFE873"/>
    </linearGradient>
  </defs>
  <g id="Layer_1">
    <g>
      <path d="M63.376,11.001 C59.053,11.021 54.924,11.39 51.292,12.032 C40.59,13.923 38.647,17.88 38.647,25.178 L38.647,34.815 L63.936,34.815 L63.936,38.028 L38.647,38.028 L29.157,38.028 C21.808,38.028 15.372,42.446 13.359,50.849 C11.037,60.481 10.934,66.492 13.359,76.55 C15.157,84.037 19.45,89.371 26.799,89.371 L35.494,89.371 L35.494,77.817 C35.494,69.471 42.716,62.108 51.292,62.108 L76.55,62.108 C83.582,62.108 89.195,56.319 89.195,49.257 L89.195,25.178 C89.195,18.324 83.413,13.176 76.55,12.032 C72.206,11.309 67.699,10.981 63.376,11.001 z M49.7,18.752 C52.312,18.752 54.445,20.92 54.445,23.586 C54.445,26.242 52.312,28.39 49.7,28.39 C47.079,28.39 44.955,26.242 44.955,23.586 C44.955,20.92 47.079,18.752 49.7,18.752 z" fill="url(#Gradient_1)" id="path1948"/>
      <path d="M92.348,38.028 L92.348,49.257 C92.348,57.964 84.967,65.291 76.55,65.291 L51.292,65.291 C44.373,65.291 38.647,71.213 38.647,78.142 L38.647,102.221 C38.647,109.075 44.607,113.106 51.292,115.072 C59.296,117.426 66.973,117.851 76.55,115.072 C82.917,113.229 89.195,109.519 89.195,102.221 L89.195,92.584 L63.936,92.584 L63.936,89.371 L89.195,89.371 L101.839,89.371 C109.188,89.371 111.927,84.245 114.483,76.55 C117.123,68.629 117.011,61.011 114.483,50.849 C112.667,43.533 109.198,38.028 101.839,38.028 z M78.142,99.009 C80.763,99.009 82.887,101.157 82.887,103.813 C82.887,106.479 80.763,108.647 78.142,108.647 C75.53,108.647 73.397,106.479 73.397,103.813 C73.397,101.157 75.53,99.009 78.142,99.009 z" fill="url(#Gradient_2)" id="path1950"/>
    </g>
  </g>
</svg>
