<?xml version="1.0" encoding="UTF-8"?>
<!DOCTYPE svg PUBLIC "-//W3C//DTD SVG 1.1//EN" "http://www.w3.org/Graphics/SVG/1.1/DTD/svg11.dtd">
<svg version="1.1" xmlns="http://www.w3.org/2000/svg" xmlns:xlink="http://www.w3.org/1999/xlink" x="0" y="0" width="32" height="32" viewBox="0, 0, 128, 128">
  <defs>
    <linearGradient id="Gradient_1" gradientUnits="userSpaceOnUse" x1="-0" y1="14.61" x2="128" y2="100.4">
      <stop offset="0" stop-color="#CBCED0"/>
      <stop offset="1" stop-color="#84838B"/>
    </linearGradient>
    <linearGradient id="Gradient_2" gradientUnits="userSpaceOnUse" x1="52.737" y1="41.245" x2="123.385" y2="113.39">
      <stop offset="0" stop-color="#276DC3"/>
      <stop offset="1" stop-color="#165CAA"/>
    </linearGradient>
  </defs>
  <g id="Layer_1">
    <g>
      <path d="M64,100.4 C28.654,100.4 -0,81.195 -0,57.505 C-0,33.815 28.654,14.61 64,14.61 C99.346,14.61 128,33.815 128,57.505 C128,81.195 99.346,100.4 64,100.4 z M73.796,31.38 C46.93,31.38 25.151,44.51 25.151,60.705 C25.151,76.901 46.93,90.03 73.796,90.03 C100.662,90.03 120.489,81.054 120.489,60.705 C120.489,40.363 100.662,31.38 73.796,31.38 z" fill="url(#Gradient_1)"/>
      <path d="M97.469,81.048 C97.469,81.048 101.342,82.218 103.593,83.357 C104.373,83.753 105.725,84.542 106.699,85.578 C107.654,86.593 108.119,87.621 108.119,87.621 L123.385,113.379 L98.711,113.39 L87.173,91.707 C87.173,91.707 84.811,87.644 83.357,86.466 C82.144,85.484 81.627,85.134 80.428,85.134 C79.593,85.134 74.565,85.134 74.565,85.134 L74.57,113.374 L52.737,113.384 L52.737,41.245 L96.581,41.245 C96.581,41.245 116.551,41.606 116.551,60.619 C116.551,79.633 97.469,81.048 97.469,81.048 z M87.972,56.893 L74.754,56.885 L74.748,69.151 L87.972,69.146 C87.972,69.146 94.096,69.127 94.096,62.907 C94.096,56.561 87.972,56.893 87.972,56.893 z" fill="url(#Gradient_2)"/>
    </g>
  </g>
</svg>
