<?xml version="1.0" encoding="UTF-8"?>
<!DOCTYPE svg PUBLIC "-//W3C//DTD SVG 1.1//EN" "http://www.w3.org/Graphics/SVG/1.1/DTD/svg11.dtd">
<svg version="1.1" xmlns="http://www.w3.org/2000/svg" xmlns:xlink="http://www.w3.org/1999/xlink" x="0" y="0" width="256" height="256" viewBox="0, 0, 256, 256">
  <defs>
    <linearGradient id="Gradient_1" gradientUnits="userSpaceOnUse" x1="311.643" y1="367.88" x2="275.466" y2="209.768" gradientTransform="matrix(0.729, 0, 0, 0.729, -66.2, -45.948)">
      <stop offset="0" stop-color="#1D6995"/>
      <stop offset="1" stop-color="#5C95B7"/>
    </linearGradient>
  </defs>
  <g id="Layer_1">
    <g>
      <path d="M248,128 C248,194.274 194.274,248 128,248 C61.726,248 8,194.274 8,128 C8,61.726 61.726,8 128,8 C194.274,8 248,61.726 248,128 z" fill="#1D6995" id="path2168"/>
      <path d="M242.276,128 C242.276,191.113 191.113,242.276 128,242.276 C64.887,242.276 13.724,191.113 13.724,128 C13.724,64.887 64.887,13.724 128,13.724 C191.113,13.724 242.276,64.887 242.276,128 z" fill="#FFFFFF" id="path3141"/>
      <path d="M230.176,128.672 C230.189,185.483 184.138,231.543 127.328,231.543 C70.517,231.543 24.467,185.483 24.479,128.672 C24.467,71.862 70.517,25.802 127.328,25.802 C184.138,25.802 230.189,71.862 230.176,128.672 z" fill="url(#Gradient_1)" id="path4114"/>
      <path d="M145.418,171.125 L145.418,200.161 Q145.418,202.096 143.967,203.548 Q142.515,205 140.579,205 L111.543,205 Q109.608,205 108.156,203.548 Q106.704,202.096 106.704,200.161 L106.704,171.125 Q106.704,169.189 108.156,167.738 Q109.608,166.286 111.543,166.286 L140.579,166.286 Q142.515,166.286 143.967,167.738 Q145.418,169.189 145.418,171.125 z" fill="#FFFFFF"/>
      <path d="M140.579,166.286 Q142.515,166.286 143.967,167.738 Q145.418,169.189 145.418,171.125 L145.418,200.161 Q145.418,202.096 143.967,203.548 Q142.515,205 140.579,205 L111.543,205 Q109.608,205 108.156,203.548 Q106.704,202.096 106.704,200.161 L106.704,171.125 Q106.704,169.189 108.156,167.738 Q109.608,166.286 111.543,166.286 L140.579,166.286 z M140.579,170.286 L111.543,170.286 C111.332,170.286 111.214,170.336 110.984,170.566 C110.754,170.796 110.704,170.913 110.704,171.125 L110.704,200.161 C110.704,200.372 110.754,200.49 110.984,200.72 C111.214,200.95 111.332,201 111.543,201 L140.579,201 C140.791,201 140.908,200.95 141.138,200.72 C141.368,200.49 141.418,200.372 141.418,200.161 L141.418,171.125 C141.418,170.913 141.368,170.796 141.138,170.566 C140.908,170.336 140.791,170.286 140.579,170.286 z" fill="#1D6995"/>
      <path d="M183.649,98.536 Q183.649,88.494 178.688,79.36 Q173.728,70.226 165.864,63.935 Q158,57.644 148.201,53.893 Q138.401,50.143 128.723,50.143 Q91.944,50.143 72.587,82.324 Q71.619,83.897 71.922,85.712 Q72.224,87.526 73.797,88.736 L93.638,103.859 Q95.211,104.827 96.662,104.827 Q98.84,104.827 100.413,102.891 Q109.124,92.003 113.358,88.978 Q118.56,85.47 126.424,85.47 Q133.804,85.47 139.43,89.341 Q145.055,93.212 145.055,98.294 Q145.055,103.98 142.031,107.488 Q139.006,110.997 131.868,114.263 Q122.432,118.498 114.568,127.39 Q106.704,136.282 106.704,146.324 L106.704,151.768 Q106.704,154.067 107.974,156.305 Q109.245,158.543 111.059,158.543 L140.095,158.543 Q142.031,158.543 143.483,156.668 Q144.934,154.792 144.934,152.736 Q144.934,149.711 148.261,144.63 Q151.588,139.549 156.549,136.766 Q161.267,134.104 163.929,132.471 Q166.59,130.838 170.885,127.208 Q175.18,123.579 177.539,120.01 Q179.898,116.441 181.773,110.755 Q183.649,105.069 183.649,98.536 z" fill="#FFFFFF"/>
      <path d="M128.723,50.143 Q138.401,50.143 148.201,53.893 Q158,57.644 165.864,63.935 Q173.728,70.226 178.688,79.36 Q183.649,88.494 183.649,98.536 Q183.649,105.069 181.773,110.755 Q179.898,116.441 177.539,120.01 Q175.18,123.579 170.885,127.208 Q166.59,130.838 163.928,132.471 Q161.267,134.104 156.549,136.766 Q151.588,139.549 148.261,144.63 Q144.934,149.711 144.934,152.736 Q144.934,154.792 143.482,156.668 Q142.031,158.543 140.095,158.543 L111.059,158.543 Q109.245,158.543 107.974,156.305 Q106.704,154.067 106.704,151.768 L106.704,146.324 Q106.704,136.282 114.568,127.39 Q122.432,118.498 131.868,114.263 Q139.006,110.997 142.031,107.488 Q145.055,103.98 145.055,98.294 Q145.055,93.212 139.43,89.341 Q133.804,85.47 126.424,85.47 Q118.56,85.47 113.358,88.978 Q109.124,92.003 100.413,102.891 Q98.84,104.827 96.663,104.827 Q95.211,104.827 93.638,103.859 L73.797,88.736 Q72.224,87.526 71.922,85.712 Q71.619,83.897 72.587,82.324 Q91.944,50.143 128.723,50.143 z M128.723,54.143 C105.616,54.143 88.201,64.127 75.994,84.42 C75.854,84.647 75.825,84.798 75.867,85.054 C75.899,85.244 75.973,85.364 76.222,85.555 L95.835,100.504 C96.412,100.8 96.131,100.705 96.663,100.827 C96.859,100.827 96.992,100.758 97.289,100.392 C103.318,92.857 107.819,88.019 111.033,85.723 L111.121,85.662 C115.294,82.848 120.426,81.47 126.424,81.47 C132.138,81.47 137.265,82.996 141.697,86.046 C146.454,89.319 149.055,93.459 149.055,98.294 C149.055,102.996 147.741,106.99 145.06,110.1 C142.608,112.945 138.769,115.504 133.506,117.913 C127.753,120.494 122.442,124.524 117.564,130.04 C112.941,135.267 110.704,140.654 110.704,146.324 L110.704,151.768 C110.704,152.587 110.938,153.423 111.453,154.33 L111.586,154.543 L140.011,154.543 C140.191,154.396 140.08,154.496 140.32,154.219 C140.764,153.645 140.934,153.184 140.934,152.736 C140.934,149.767 142.308,146.42 144.915,142.439 C147.479,138.522 150.714,135.453 154.583,133.282 C157.69,131.53 160.111,130.121 161.837,129.062 C163.409,128.097 165.581,126.454 168.303,124.153 C170.893,121.965 172.856,119.841 174.202,117.804 C175.561,115.749 176.828,112.979 177.975,109.502 C179.088,106.125 179.649,102.474 179.649,98.536 C179.649,92.514 178.165,86.778 175.173,81.269 C172.119,75.644 168.188,70.917 163.366,67.058 C158.449,63.125 152.922,59.983 146.771,57.629 C140.686,55.3 134.676,54.143 128.723,54.143 z" fill="#1D6995"/>
    </g>
  </g>
</svg>
